<svg xmlns="http://www.w3.org/2000/svg" xmlns:xlink="http://www.w3.org/1999/xlink" width="2170" height="400" viewBox="0 0 2170 400">
  <defs>
    <clipPath id="clip-logo_black">
      <rect width="2170" height="400"/>
    </clipPath>
  </defs>
  <g id="logo_black" clip-path="url(#clip-logo_black)">
    <path id="Pfad_4" data-name="Pfad 4" d="M90,0a90,90,0,0,1,90,90v90H0V90A90,90,0,0,1,90,0Z" transform="translate(0 220)"/>
    <path id="Pfad_3" data-name="Pfad 3" d="M90,0a90,90,0,0,1,90,90v90H0V90A90,90,0,0,1,90,0Z" transform="translate(220 220)"/>
    <path id="Pfad_5" data-name="Pfad 5" d="M0,0H90A90,90,0,1,1,0,90Z"/>
    <path id="Pfad_2" data-name="Pfad 2" d="M90,0a90,90,0,0,1,90,90v90H90A90,90,0,0,1,90,0Z" transform="translate(220)"/>
    <path id="Pfad_1" data-name="Pfad 1" d="M10.84-373.439v42.111H75.89v193.779h47.589V-331.328h65.05v-42.111Zm297.516,71.9c-15.406,0-41.084,8.9-47.931,29.444V-373.44h-44.85v235.892h44.85v-83.88c0-28.759,19.857-37.66,35.948-37.66,15.406,0,30.471,11.64,30.471,36.633v84.907h44.85v-87.646C372.036-273.125,350.125-301.542,308.356-301.542Zm264.991,81.483c0-48.958-37.318-81.483-83.2-81.483-45.535,0-84.907,32.525-84.907,84.222,0,49.3,35.948,83.88,85.249,83.88,28.074,0,55.806-11.983,70.87-32.182l-26.02-26.362a57.1,57.1,0,0,1-42.111,18.83c-21.227,0-36.291-10.956-41.084-29.786H572.321C573.005-210.13,573.348-215.608,573.348-220.059Zm-121.2-11.983c4.793-21.569,20.542-30.813,39.03-30.813,20.2,0,35.606,11.983,36.976,30.813Zm243.422-141.4v235.89h47.589v-82.51h48.616c53.409,0,77.032-37.66,77.032-76.348s-23.623-77.032-77.032-77.032Zm47.589,111.611v-69.5h46.9c22.254,0,30.813,17.8,30.813,34.921,0,16.776-8.559,34.579-31.5,34.579Zm270.469-14.379c-10.613-16.434-31.155-25.335-51.7-25.335-45.877,0-78.059,34.579-78.059,84.222s32.867,83.88,77.032,83.88c21.569,0,42.111-10.613,52.724-27.047v22.939h44.85V-297.433h-44.85Zm-42.8,101c-23.623,0-41.084-19.857-41.084-42.111,0-23.281,17.461-42.453,40.742-42.453a42.083,42.083,0,0,1,41.768,42.453C1012.261-194.381,993.431-175.209,970.835-175.209Zm225.619-126.333c-15.749,0-41.084,9.586-47.931,31.155v-27.047h-44.85v159.885h44.85v-83.88c0-29.1,19.857-37.66,35.948-37.66,15.406,0,30.471,11.3,30.471,36.291v85.249h44.85v-87.646C1260.134-273.125,1238.223-301.542,1196.454-301.542Zm264.991,81.483c0-48.958-37.318-81.483-83.2-81.483-45.535,0-84.907,32.525-84.907,84.222,0,49.3,35.949,83.88,85.249,83.88,28.074,0,55.806-11.983,70.87-32.182l-26.02-26.362a57.1,57.1,0,0,1-42.111,18.83c-21.227,0-36.291-10.956-41.084-29.786h120.171C1461.1-210.13,1461.446-215.608,1461.446-220.059Zm-121.2-11.983c4.793-21.569,20.542-30.813,39.03-30.813,20.2,0,35.606,11.983,36.976,30.813Zm200.627,94.493V-373.44h-44.85v235.892Z" transform="translate(509.16 453.44)"/>
  </g>
</svg>
